{
	"asset":{
		"generator":"Khronos glTF Blender I/O v4.0.44",
		"version":"2.0"
	},
	"scene":0,
	"scenes":[
		{
			"name":"Scene",
			"nodes":[
				0
			]
		}
	],
	"nodes":[
		{
			"mesh":0,
			"name":"baked",
			"rotation":[
				0.7071068286895752,
				0,
				0,
				0.7071068286895752
			]
		}
	],
	"materials":[
		{
			"doubleSided":true,
			"name":"baked",
			"normalTexture":{
				"index":0
			},
			"pbrMetallicRoughness":{
				"baseColorFactor":[
					1,
					0.7234069108963013,
					0.13363860547542572,
					1
				],
				"roughnessFactor":0.11363637447357178
			}
		}
	],
	"meshes":[
		{
			"name":"Cube.002",
			"primitives":[
				{
					"attributes":{
						"POSITION":0,
						"NORMAL":1,
						"TEXCOORD_0":2
					},
					"indices":3,
					"material":0
				}
			]
		}
	],
	"textures":[
		{
			"sampler":0,
			"source":0
		}
	],
	"images":[
		{
			"mimeType":"image/png",
			"name":"full-coin-baked_normals",
			"uri":"full-coin-baked_normals.png"
		}
	],
	"accessors":[
		{
			"bufferView":0,
			"componentType":5126,
			"count":3016,
			"max":[
				0.7732499837875366,
				0.019999999552965164,
				0.7730804085731506
			],
			"min":[
				-0.7732499837875366,
				-0.019999999552965164,
				-0.7730804085731506
			],
			"type":"VEC3"
		},
		{
			"bufferView":1,
			"componentType":5126,
			"count":3016,
			"type":"VEC3"
		},
		{
			"bufferView":2,
			"componentType":5126,
			"count":3016,
			"type":"VEC2"
		},
		{
			"bufferView":3,
			"componentType":5123,
			"count":10788,
			"type":"SCALAR"
		}
	],
	"bufferViews":[
		{
			"buffer":0,
			"byteLength":36192,
			"byteOffset":0,
			"target":34962
		},
		{
			"buffer":0,
			"byteLength":36192,
			"byteOffset":36192,
			"target":34962
		},
		{
			"buffer":0,
			"byteLength":24128,
			"byteOffset":72384,
			"target":34962
		},
		{
			"buffer":0,
			"byteLength":21576,
			"byteOffset":96512,
			"target":34963
		}
	],
	"samplers":[
		{
			"magFilter":9729,
			"minFilter":9987
		}
	],
	"buffers":[
		{
			"byteLength":118088,
			"uri":"coin.bin"
		}
	]
}
